<?xml version="1.0" standalone="no"?>
<!DOCTYPE svg PUBLIC "-//W3C//DTD SVG 20010904//EN"
 "http://www.w3.org/TR/2001/REC-SVG-20010904/DTD/svg10.dtd">
<svg version="1.0" xmlns="http://www.w3.org/2000/svg"
 width="989.000000pt" height="614.000000pt" viewBox="0 0 989.000000 614.000000"
 preserveAspectRatio="xMidYMid meet">

<g transform="translate(0.000000,614.000000) scale(0.100000,-0.100000)"
fill="#000000" stroke="none">
<path d="M5200 6124 c-1051 -70 -1943 -286 -2828 -685 -907 -409 -1669 -1006
-2071 -1624 -197 -302 -294 -589 -294 -865 0 -241 54 -394 186 -525 131 -130
261 -190 672 -309 343 -99 455 -144 590 -237 98 -67 160 -135 253 -274 250
-374 610 -604 1106 -705 541 -110 1249 -62 2057 140 253 64 324 74 514 74 306
-1 565 -66 911 -229 185 -87 381 -205 774 -465 404 -268 514 -332 656 -379
278 -93 398 18 364 339 -14 140 -5 203 44 295 79 151 248 263 676 450 356 155
500 241 635 379 243 247 378 495 420 771 44 293 -16 850 -131 1216 -172 548
-483 1041 -920 1458 -723 691 -1707 1090 -2884 1171 -130 9 -614 11 -730 4z
m-1570 -1851 l0 -398 30 37 c36 44 126 105 192 130 182 69 399 24 516 -108 60
-67 95 -134 124 -239 21 -76 22 -103 26 -562 l4 -483 -221 0 -220 0 -3 443
c-3 395 -5 447 -21 488 -76 198 -359 177 -417 -30 -6 -21 -10 -210 -10 -468
l0 -433 -220 0 -220 0 0 1010 0 1010 220 0 220 0 0 -397z m3790 -205 c1 -554
2 -601 16 -573 9 17 93 146 186 288 l171 257 264 0 264 0 -213 -242 c-287
-325 -280 -317 -276 -326 2 -4 125 -185 274 -402 149 -217 274 -401 278 -407
6 -10 -49 -13 -261 -13 l-268 1 -166 284 -166 284 -52 -64 -51 -64 0 -221 0
-220 -220 0 -220 0 0 1010 0 1010 220 0 220 0 0 -602z m-2343 558 c139 -71
161 -269 41 -365 -111 -89 -300 -56 -358 63 -24 50 -27 150 -6 199 18 44 71
93 120 112 50 18 161 13 203 -9z m-2357 -386 l0 -200 155 0 155 0 0 -160 0
-160 -156 0 -155 0 3 -312 c3 -294 4 -315 24 -353 31 -61 70 -77 179 -73 l90
3 3 -163 2 -162 -27 -11 c-16 -6 -79 -16 -141 -22 -320 -32 -500 83 -548 351
-9 55 -13 174 -14 410 l0 332 -90 0 -90 0 0 160 0 160 90 0 90 0 0 154 0 153
33 6 c17 3 109 24 202 46 94 22 176 40 183 40 9 1 12 -45 12 -199z m3653 -181
c123 -24 243 -120 302 -244 61 -127 65 -170 65 -695 l0 -470 -215 0 -215 0 0
398 c0 408 -6 496 -39 561 -67 128 -234 150 -338 44 -72 -75 -73 -80 -73 -570
l0 -433 -220 0 -220 0 0 573 c0 316 -3 629 -7 695 l-6 122 190 0 191 0 7 -62
c3 -35 9 -76 12 -92 l5 -29 39 46 c120 140 310 197 522 156z m-1193 -714 l0
-695 -215 0 -215 0 0 695 0 695 215 0 215 0 0 -695z m-152 -907 l-3 -33 -80
-3 c-94 -3 -105 -12 -105 -84 l0 -48 91 0 90 0 -3 -32 -3 -33 -87 -3 -88 -3 0
-52 c0 -29 5 -58 12 -65 7 -7 44 -12 96 -12 l83 0 -3 -32 -3 -33 -83 -3 c-90
-3 -136 11 -162 50 -22 35 -27 291 -7 341 25 58 66 77 170 77 l88 0 -3 -32z
m178 17 c12 -7 49 -76 84 -152 35 -76 64 -139 64 -140 1 -1 1 67 1 150 l0 152
38 3 37 3 0 -235 0 -236 -43 0 -44 0 -79 177 -79 177 -3 -177 -2 -177 -40 0
-40 0 0 235 0 235 43 0 c23 0 52 -7 63 -15z m611 2 c7 -4 9 -17 4 -35 -8 -27
-8 -27 -83 -23 -93 4 -114 -2 -133 -39 -21 -40 -21 -210 0 -250 18 -35 72 -53
125 -42 l35 8 5 79 5 80 30 0 30 0 3 -106 3 -107 -53 -13 c-204 -49 -293 40
-275 278 6 84 27 127 78 161 31 22 43 23 124 20 50 -2 95 -7 102 -11z m363
-22 l0 -35 -79 0 c-92 0 -102 -7 -104 -77 l-2 -48 88 -3 87 -3 0 -34 0 -35
-91 0 -92 0 6 -51 c9 -74 16 -79 114 -79 l84 0 -3 -32 -3 -33 -75 -3 c-98 -4
-145 10 -170 51 -17 28 -20 51 -20 180 0 110 4 155 14 176 23 43 69 61 164 61
l82 0 0 -35z m194 10 c12 -13 47 -81 77 -150 l54 -126 3 150 3 151 39 0 40 0
0 -236 0 -235 -47 3 -46 3 -76 172 -76 172 -3 -175 -2 -174 -40 0 -40 0 0 235
0 235 45 0 c36 0 51 -5 69 -25z m386 -75 l0 -100 85 0 85 0 0 100 0 100 40 0
40 0 -2 -232 -3 -233 -37 -3 -38 -3 0 100 0 101 -85 0 -85 0 0 -100 0 -100
-40 0 -40 0 0 235 0 235 40 0 40 0 0 -100z m560 80 c20 -20 28 -45 95 -290
l42 -155 -35 -3 c-41 -4 -45 1 -61 74 l-13 55 -86 -3 -87 -3 -16 -60 c-16 -60
-16 -60 -56 -63 l-40 -3 52 188 c28 103 55 200 59 216 3 15 15 36 26 47 27 27
93 27 120 0z m419 5 c34 -17 71 -87 71 -134 0 -40 -22 -83 -56 -110 -25 -20
-26 -24 -14 -49 7 -15 25 -57 41 -94 l28 -68 -43 0 -43 0 -34 88 c-33 82 -36
87 -67 90 l-32 3 0 -90 0 -91 -40 0 -40 0 2 223 3 222 35 12 c50 17 155 16
189 -2z m219 -217 l-3 -233 -37 -3 -38 -3 0 235 0 236 40 0 40 0 -2 -232z
m310 209 c15 -15 39 -87 77 -227 30 -112 55 -208 55 -212 0 -5 -17 -8 -37 -6
-37 3 -38 4 -54 63 l-16 60 -86 3 -86 3 -10 -38 c-5 -21 -13 -50 -17 -65 -5
-25 -11 -28 -46 -28 -28 0 -39 4 -36 13 3 6 29 101 58 210 30 109 62 210 72
223 27 33 95 34 126 1z"/>
<path d="M7242 2368 c-26 -81 -44 -159 -40 -164 3 -3 32 -4 65 -2 l60 3 -26
94 c-14 52 -31 96 -38 98 -6 2 -16 -11 -21 -29z"/>
<path d="M7623 2403 l-33 -4 0 -80 0 -79 44 0 c61 0 96 29 96 80 0 63 -37 91
-107 83z"/>
<path d="M8196 2391 c-3 -5 -17 -50 -30 -100 l-25 -91 65 0 c35 0 64 4 64 8 0
5 -6 31 -14 58 -8 27 -20 68 -26 92 -10 40 -23 52 -34 33z"/>
</g>
</svg>
